<svg width="6" height="13" viewBox="0 0 6 13" fill="none" xmlns="http://www.w3.org/2000/svg">
<path opacity="0.2" d="M5.05574 10.1111C5.05574 10.5396 4.92867 10.9585 4.6906 11.3148C4.45252 11.6712 4.11413 11.9489 3.71823 12.1129C3.32232 12.2768 2.88668 12.3197 2.46638 12.2361C2.04609 12.1525 1.66003 11.9462 1.35701 11.6432C1.054 11.3402 0.847646 10.9541 0.764045 10.5338C0.680444 10.1135 0.723351 9.67787 0.887341 9.28197C1.05133 8.88606 1.32904 8.54767 1.68534 8.3096C2.04165 8.07152 2.46055 7.94445 2.88908 7.94445C3.46371 7.94445 4.01481 8.17272 4.42114 8.57905C4.82747 8.98538 5.05574 9.53648 5.05574 10.1111ZM2.88908 5.05556C3.3176 5.05556 3.73651 4.92849 4.09281 4.69041C4.44912 4.45234 4.72683 4.11395 4.89082 3.71804C5.05481 3.32214 5.09771 2.88649 5.01411 2.4662C4.93051 2.04591 4.72416 1.65985 4.42114 1.35683C4.11813 1.05382 3.73207 0.847463 3.31178 0.763862C2.89148 0.680261 2.45584 0.723168 2.05993 0.887158C1.66403 1.05115 1.32564 1.32885 1.08756 1.68516C0.849486 2.04147 0.722413 2.46037 0.722413 2.8889C0.722413 3.46353 0.950686 4.01463 1.35701 4.42096C1.76334 4.82729 2.31444 5.05556 2.88908 5.05556Z" fill="black"/>
<path d="M2.88889 7.22222C2.31752 7.22222 1.75898 7.39165 1.28391 7.70909C0.808834 8.02652 0.438558 8.4777 0.219905 9.00558C0.00125171 9.53346 -0.0559579 10.1143 0.0555105 10.6747C0.166979 11.2351 0.442119 11.7498 0.846137 12.1539C1.25016 12.5579 1.76491 12.833 2.3253 12.9445C2.88568 13.056 3.46654 12.9987 3.99442 12.7801C4.52229 12.5614 4.97348 12.1912 5.29091 11.7161C5.60835 11.241 5.77778 10.6825 5.77778 10.1111C5.77778 9.34493 5.47341 8.61013 4.93164 8.06836C4.38987 7.52659 3.65507 7.22222 2.88889 7.22222ZM2.88889 11.5556C2.60321 11.5556 2.32394 11.4708 2.0864 11.3121C1.84886 11.1534 1.66372 10.9278 1.5544 10.6639C1.44507 10.3999 1.41647 10.1095 1.4722 9.82931C1.52793 9.54912 1.6655 9.29174 1.86751 9.08973C2.06952 8.88773 2.3269 8.75015 2.60709 8.69442C2.88729 8.63869 3.17772 8.66729 3.44165 8.77662C3.70559 8.88594 3.93118 9.07108 4.0899 9.30862C4.24862 9.54616 4.33333 9.82543 4.33333 10.1111C4.33333 10.4942 4.18115 10.8616 3.91027 11.1325C3.63938 11.4034 3.27198 11.5556 2.88889 11.5556ZM2.88889 5.77778C3.46026 5.77778 4.01879 5.60835 4.49387 5.29091C4.96894 4.97348 5.33922 4.52229 5.55787 3.99442C5.77653 3.46654 5.83374 2.88568 5.72227 2.3253C5.6108 1.76491 5.33566 1.25016 4.93164 0.846137C4.52762 0.442119 4.01287 0.166979 3.45248 0.0555105C2.89209 -0.0559579 2.31123 0.00125171 1.78336 0.219905C1.25548 0.438558 0.804302 0.808834 0.486867 1.28391C0.169432 1.75898 1.5569e-06 2.31752 1.5569e-06 2.88889C1.5569e-06 3.65507 0.304365 4.38987 0.846137 4.93164C1.38791 5.47341 2.12271 5.77778 2.88889 5.77778ZM2.88889 1.44445C3.17457 1.44445 3.45384 1.52916 3.69138 1.68788C3.92892 1.8466 4.11406 2.07219 4.22338 2.33612C4.33271 2.60006 4.36131 2.89049 4.30558 3.17069C4.24984 3.45088 4.11227 3.70826 3.91027 3.91027C3.70826 4.11228 3.45088 4.24985 3.17069 4.30558C2.89049 4.36131 2.60006 4.33271 2.33612 4.22338C2.07219 4.11406 1.8466 3.92892 1.68788 3.69138C1.52916 3.45384 1.44445 3.17457 1.44445 2.88889C1.44445 2.5058 1.59663 2.1384 1.86751 1.86751C2.1384 1.59663 2.5058 1.44445 2.88889 1.44445Z" fill="black"/>
</svg>
